<svg width="50" height="50" viewBox="0 0 50 50" fill="none" xmlns="http://www.w3.org/2000/svg">
<path d="M38 19.5C38 26.9558 32.1797 33 25 33C17.8203 33 12 26.9558 12 19.5C12 12.0442 17.8203 6 25 6C32.1797 6 38 12.0442 38 19.5ZM12.8419 19.5C12.8419 26.473 18.2852 32.1258 25 32.1258C31.7148 32.1258 37.1581 26.473 37.1581 19.5C37.1581 12.527 31.7148 6.87423 25 6.87423C18.2852 6.87423 12.8419 12.527 12.8419 19.5Z" fill="black"/>
<rect x="23.4" y="32.9" width="3.2" height="8.2" stroke="black" stroke-width="0.8"/>
<path d="M36 38.5C36 39.8807 34.6569 41 33 41C31.3431 41 30 39.8807 30 38.5C30 37.1193 31.3431 36 33 36C34.6569 36 36 37.1193 36 38.5ZM30.435 38.5C30.435 39.6805 31.5834 40.6375 33 40.6375C34.4166 40.6375 35.565 39.6805 35.565 38.5C35.565 37.3195 34.4166 36.3625 33 36.3625C31.5834 36.3625 30.435 37.3195 30.435 38.5Z" fill="black"/>
</svg>
