<svg width="129" height="105" viewBox="0 0 129 105" fill="none" xmlns="http://www.w3.org/2000/svg">
<path d="M33 74C33 66.268 39.268 60 47 60H82C89.732 60 96 66.268 96 74V82C96 87.5228 91.5228 92 86 92H43C37.4772 92 33 87.5228 33 82V74Z" fill="#D9D9D9"/>
<path d="M52 60H83V64.5C83 73.0604 76.0604 80 67.5 80V80C58.9396 80 52 73.0604 52 64.5V60Z" fill="#D9D9D9"/>
<rect x="47" y="60" width="35" height="32" fill="#26D616"/>
<path d="M33 74C33 66.268 39.268 60 47 60H58C63.5228 60 68 64.4772 68 70V92H38C35.2386 92 33 89.7614 33 87V74Z" fill="#A9A0A0"/>
<path d="M96 74C96 66.268 89.732 60 82 60H71C65.4772 60 61 64.4772 61 70V92H91C93.7614 92 96 89.7614 96 87V74Z" fill="#A9A0A0"/>
<path d="M45 38C57.53 12.9123 69.859 15.2399 84 38V38.5C84 49.2695 75.2696 58 64.5 58V58C53.7304 58 45 49.2695 45 38.5V38Z" fill="#A9A0A0"/>
<path d="M45 40.0465C57.53 65.1341 69.859 62.8066 84 40.0465V39.5465C84 28.7769 75.2696 20.0465 64.5 20.0465V20.0465C53.7304 20.0465 45 28.7769 45 39.5465V40.0465Z" fill="#A9A0A0"/>
<path d="M57 60H72V61.8947C72 65.8189 68.8189 69 64.8947 69V69C60.5346 69 57 65.4654 57 61.1053V60Z" fill="#A9A0A0"/>
</svg>
