<svg width="129" height="105" viewBox="0 0 129 105" fill="none" xmlns="http://www.w3.org/2000/svg">
<path d="M15.465 65L5.665 40.5H10.46L16.025 54.745C16.305 55.4683 16.55 56.1217 16.76 56.705C16.97 57.265 17.1567 57.7783 17.32 58.245C17.4833 58.7117 17.635 59.1667 17.775 59.61C17.915 60.0533 18.055 60.5083 18.195 60.975L17.215 61.01C17.4017 60.38 17.5883 59.7617 17.775 59.155C17.9617 58.525 18.1717 57.86 18.405 57.16C18.6383 56.46 18.93 55.655 19.28 54.745L24.495 40.5H29.325L19.49 65H15.465ZM37.4204 65.35C35.9037 65.35 34.5154 64.93 33.2554 64.09C32.0187 63.25 31.0271 62.1067 30.2804 60.66C29.5571 59.2133 29.1954 57.5683 29.1954 55.725C29.1954 53.8817 29.5687 52.2483 30.3154 50.825C31.0621 49.3783 32.0771 48.2467 33.3604 47.43C34.6437 46.59 36.0904 46.17 37.7004 46.17C38.6337 46.17 39.4854 46.31 40.2554 46.59C41.0487 46.87 41.7371 47.255 42.3204 47.745C42.9037 48.235 43.3821 48.795 43.7554 49.425C44.1521 50.055 44.4204 50.7433 44.5604 51.49L43.6504 51.245V46.555H47.7804V65H43.6154V60.59L44.5604 60.415C44.4204 61.045 44.1287 61.6633 43.6854 62.27C43.2654 62.8533 42.7287 63.3783 42.0754 63.845C41.4221 64.2883 40.6987 64.65 39.9054 64.93C39.1354 65.21 38.3071 65.35 37.4204 65.35ZM38.5404 61.64C39.5671 61.64 40.4654 61.395 41.2354 60.905C42.0287 60.3917 42.6471 59.6917 43.0904 58.805C43.5337 57.9183 43.7554 56.8917 43.7554 55.725C43.7554 54.605 43.5337 53.6017 43.0904 52.715C42.6471 51.8283 42.0287 51.14 41.2354 50.65C40.4654 50.1367 39.5671 49.88 38.5404 49.88C37.5137 49.88 36.6154 50.1367 35.8454 50.65C35.0754 51.14 34.4687 51.8283 34.0254 52.715C33.5821 53.6017 33.3604 54.605 33.3604 55.725C33.3604 56.8917 33.5821 57.9183 34.0254 58.805C34.4687 59.6917 35.0754 60.3917 35.8454 60.905C36.6154 61.395 37.5137 61.64 38.5404 61.64ZM52.8081 65V46.555H56.8681L56.9031 50.335L56.1681 50.755C56.4014 49.9383 56.8564 49.1917 57.5331 48.515C58.2098 47.815 59.0148 47.255 59.9481 46.835C60.8814 46.3917 61.8381 46.17 62.8181 46.17C64.2181 46.17 65.3848 46.45 66.3181 47.01C67.2748 47.57 67.9864 48.41 68.4531 49.53C68.9198 50.65 69.1531 52.05 69.1531 53.73V65H65.0231V54.045C65.0231 53.0883 64.8831 52.295 64.6031 51.665C64.3464 51.0117 63.9498 50.545 63.4131 50.265C62.8764 49.9617 62.1998 49.8217 61.3831 49.845C60.7531 49.845 60.1698 49.95 59.6331 50.16C59.0964 50.37 58.6181 50.6617 58.1981 51.035C57.8014 51.385 57.4864 51.805 57.2531 52.295C57.0431 52.785 56.9381 53.31 56.9381 53.87V65H54.8731C54.4998 65 54.1381 65 53.7881 65C53.4381 65 53.1114 65 52.8081 65ZM81.0337 65.35C79.517 65.35 78.1287 64.93 76.8687 64.09C75.632 63.25 74.6403 62.1067 73.8937 60.66C73.1703 59.2133 72.8087 57.5683 72.8087 55.725C72.8087 53.8817 73.182 52.2483 73.9287 50.825C74.6753 49.3783 75.6903 48.2467 76.9737 47.43C78.257 46.59 79.7037 46.17 81.3137 46.17C82.247 46.17 83.0987 46.31 83.8687 46.59C84.662 46.87 85.3503 47.255 85.9337 47.745C86.517 48.235 86.9953 48.795 87.3687 49.425C87.7653 50.055 88.0337 50.7433 88.1737 51.49L87.2637 51.245V46.555H91.3937V65H87.2287V60.59L88.1737 60.415C88.0337 61.045 87.742 61.6633 87.2987 62.27C86.8787 62.8533 86.342 63.3783 85.6887 63.845C85.0353 64.2883 84.312 64.65 83.5187 64.93C82.7487 65.21 81.9203 65.35 81.0337 65.35ZM82.1537 61.64C83.1803 61.64 84.0787 61.395 84.8487 60.905C85.642 60.3917 86.2603 59.6917 86.7037 58.805C87.147 57.9183 87.3687 56.8917 87.3687 55.725C87.3687 54.605 87.147 53.6017 86.7037 52.715C86.2603 51.8283 85.642 51.14 84.8487 50.65C84.0787 50.1367 83.1803 49.88 82.1537 49.88C81.127 49.88 80.2287 50.1367 79.4587 50.65C78.6887 51.14 78.082 51.8283 77.6387 52.715C77.1953 53.6017 76.9737 54.605 76.9737 55.725C76.9737 56.8917 77.1953 57.9183 77.6387 58.805C78.082 59.6917 78.6887 60.3917 79.4587 60.905C80.2287 61.395 81.127 61.64 82.1537 61.64ZM96.4564 65V39.1H100.621V65H96.4564ZM112.342 65.35C110.826 65.35 109.437 64.93 108.177 64.09C106.941 63.25 105.949 62.1067 105.202 60.66C104.479 59.2133 104.117 57.5683 104.117 55.725C104.117 53.8817 104.491 52.2483 105.237 50.825C105.984 49.3783 106.999 48.2467 108.282 47.43C109.566 46.59 111.012 46.17 112.622 46.17C113.556 46.17 114.407 46.31 115.177 46.59C115.971 46.87 116.659 47.255 117.242 47.745C117.826 48.235 118.304 48.795 118.677 49.425C119.074 50.055 119.342 50.7433 119.482 51.49L118.572 51.245V46.555H122.702V65H118.537V60.59L119.482 60.415C119.342 61.045 119.051 61.6633 118.607 62.27C118.187 62.8533 117.651 63.3783 116.997 63.845C116.344 64.2883 115.621 64.65 114.827 64.93C114.057 65.21 113.229 65.35 112.342 65.35ZM113.462 61.64C114.489 61.64 115.387 61.395 116.157 60.905C116.951 60.3917 117.569 59.6917 118.012 58.805C118.456 57.9183 118.677 56.8917 118.677 55.725C118.677 54.605 118.456 53.6017 118.012 52.715C117.569 51.8283 116.951 51.14 116.157 50.65C115.387 50.1367 114.489 49.88 113.462 49.88C112.436 49.88 111.537 50.1367 110.767 50.65C109.997 51.14 109.391 51.8283 108.947 52.715C108.504 53.6017 108.282 54.605 108.282 55.725C108.282 56.8917 108.504 57.9183 108.947 58.805C109.391 59.6917 109.997 60.3917 110.767 60.905C111.537 61.395 112.436 61.64 113.462 61.64Z" fill="url(#paint0_diamond_0_1)"/>
<defs>
<radialGradient id="paint0_diamond_0_1" cx="0" cy="0" r="1" gradientUnits="userSpaceOnUse" gradientTransform="translate(69.5 48.5) rotate(86.6822) scale(34.5579 161.271)">
<stop offset="0.0924211" stop-color="#8FADE9"/>
<stop offset="1" stop-color="#586ACA" stop-opacity="0"/>
</radialGradient>
</defs>
</svg>
