<svg width="129" height="105" viewBox="0 0 129 105" fill="none" xmlns="http://www.w3.org/2000/svg">
<path d="M23.768 74.744C23.352 74.744 23.08 74.552 22.952 74.168C22.856 73.784 22.808 73.432 22.808 73.112C22.808 72.696 22.888 72.136 23.048 71.432C23.208 70.728 23.416 69.976 23.672 69.176C23.928 68.376 24.168 67.624 24.392 66.92C24.648 66.216 24.856 65.656 25.016 65.24C25.016 63.96 25 62.696 24.968 61.448C24.936 60.2 24.92 58.936 24.92 57.656C24.92 56.888 24.856 55.88 24.728 54.632C24.632 53.384 24.456 52.04 24.2 50.6C23.944 49.128 23.608 47.672 23.192 46.232C22.776 44.792 22.264 43.48 21.656 42.296C21.048 41.08 20.328 40.104 19.496 39.368C18.664 38.632 17.72 38.264 16.664 38.264C15.416 38.264 14.248 38.616 13.16 39.32C12.104 39.992 11.16 40.904 10.328 42.056C9.496 43.176 8.776 44.408 8.168 45.752C7.592 47.096 7.144 48.44 6.824 49.784C6.536 51.096 6.392 52.28 6.392 53.336C6.392 54.04 6.488 54.776 6.68 55.544C6.904 56.312 7.256 56.968 7.736 57.512C8.248 58.024 8.936 58.28 9.8 58.28C10.568 58.28 11.272 58.088 11.912 57.704C12.584 57.32 13.192 56.888 13.736 56.408C14.28 55.896 14.744 55.448 15.128 55.064C15.512 54.68 15.784 54.488 15.944 54.488C15.976 54.52 15.992 54.6 15.992 54.728C15.992 55.144 15.752 55.624 15.272 56.168C14.792 56.68 14.2 57.192 13.496 57.704C12.792 58.184 12.104 58.584 11.432 58.904C10.76 59.192 10.216 59.336 9.8 59.336C8.648 59.336 7.72 59.048 7.016 58.472C6.312 57.864 5.784 57.096 5.432 56.168C5.112 55.24 4.952 54.264 4.952 53.24C4.952 52.024 5.128 50.696 5.48 49.256C5.864 47.816 6.408 46.376 7.112 44.936C7.816 43.464 8.648 42.136 9.608 40.952C10.568 39.736 11.656 38.76 12.872 38.024C14.088 37.288 15.4 36.92 16.808 36.92C18.344 36.92 19.656 37.384 20.744 38.312C21.832 39.208 22.728 40.424 23.432 41.96C24.136 43.464 24.68 45.144 25.064 47C25.48 48.824 25.784 50.68 25.976 52.568C26.168 54.424 26.28 56.168 26.312 57.8C26.376 59.4 26.408 60.728 26.408 61.784C26.92 60.6 27.576 59.224 28.376 57.656C29.176 56.056 30.088 54.376 31.112 52.616C32.136 50.856 33.256 49.144 34.472 47.48C35.688 45.784 36.952 44.248 38.264 42.872C39.608 41.496 40.968 40.408 42.344 39.608C43.72 38.776 45.096 38.36 46.472 38.36C47.048 38.36 47.464 38.552 47.72 38.936C48.008 39.288 48.152 39.736 48.152 40.28C48.152 40.44 48.104 40.728 48.008 41.144C47.944 41.56 47.832 41.944 47.672 42.296C47.544 42.616 47.368 42.776 47.144 42.776C47.016 42.776 46.92 42.728 46.856 42.632C46.792 42.504 46.76 42.376 46.76 42.248C46.76 41.992 46.824 41.752 46.952 41.528C47.08 41.304 47.144 41.064 47.144 40.808C47.144 40.616 47.064 40.488 46.904 40.424C46.776 40.36 46.632 40.328 46.472 40.328C45.064 40.328 43.656 40.776 42.248 41.672C40.84 42.568 39.496 43.704 38.216 45.08C36.968 46.424 35.832 47.816 34.808 49.256C33.784 50.696 32.936 51.976 32.264 53.096C31.816 53.8 31.288 54.728 30.68 55.88C30.072 57 29.464 58.2 28.856 59.48C28.248 60.728 27.704 61.944 27.224 63.128C26.776 64.312 26.488 65.32 26.36 66.152C26.232 67.016 26.152 67.896 26.12 68.792C26.12 69.688 26.056 70.568 25.928 71.432C25.896 71.752 25.784 72.168 25.592 72.68C25.432 73.224 25.208 73.704 24.92 74.12C24.632 74.536 24.248 74.744 23.768 74.744ZM36.0163 72.344C35.4723 72.344 35.0723 72.072 34.8163 71.528C34.5603 71.016 34.4003 70.424 34.3363 69.752C34.2722 69.08 34.2402 68.568 34.2402 68.216C34.2402 67 34.3523 65.72 34.5763 64.376C34.8003 63 35.0883 61.72 35.4403 60.536C35.6003 59.992 35.8883 59.208 36.3043 58.184C36.7203 57.128 37.2163 56.056 37.7923 54.968C38.4003 53.88 39.0403 52.968 39.7122 52.232C40.4163 51.464 41.1203 51.08 41.8243 51.08C42.3683 51.08 42.9603 51.32 43.6003 51.8C44.2403 52.28 44.5603 52.808 44.5603 53.384C44.5603 53.608 44.4803 53.8 44.3203 53.96C44.3523 53.928 44.4323 53.912 44.5603 53.912C45.1683 53.912 45.4723 54.232 45.4723 54.872C45.4723 55.608 45.3603 56.488 45.1363 57.512C44.9443 58.536 44.7363 59.624 44.5123 60.776C44.2883 61.896 44.1763 62.984 44.1763 64.04C44.1763 64.424 44.2083 64.888 44.2723 65.432C44.3363 65.944 44.4803 66.408 44.7043 66.824C44.9603 67.24 45.3603 67.448 45.9043 67.448C46.4163 67.448 46.9603 67.176 47.5363 66.632C48.1123 66.088 48.6723 65.416 49.2163 64.616C49.7603 63.816 50.2723 63.016 50.7523 62.216C51.2323 61.416 51.6323 60.744 51.9523 60.2C52.3043 59.656 52.5443 59.384 52.6723 59.384C52.8963 59.384 53.0083 59.528 53.0083 59.816C53.0083 60.2 52.8323 60.76 52.4803 61.496C52.1603 62.2 51.7283 62.984 51.1843 63.848C50.6403 64.68 50.0323 65.496 49.3603 66.296C48.7203 67.064 48.0643 67.704 47.3923 68.216C46.7523 68.696 46.1763 68.936 45.6643 68.936C44.8323 68.936 44.1923 68.6 43.7443 67.928C43.3283 67.224 43.0403 66.392 42.8803 65.432C42.7523 64.472 42.6883 63.576 42.6883 62.744C42.6883 62.456 42.6883 62.184 42.6883 61.928C42.6883 61.672 42.7043 61.448 42.7363 61.256C42.5443 61.704 42.2723 62.376 41.9203 63.272C41.5683 64.136 41.1523 65.096 40.6723 66.152C40.2243 67.176 39.7283 68.168 39.1843 69.128C38.6723 70.056 38.1443 70.824 37.6003 71.432C37.0563 72.04 36.5283 72.344 36.0163 72.344ZM36.4003 70.328C36.8163 70.328 37.2803 69.944 37.7923 69.176C38.3043 68.408 38.8323 67.432 39.3763 66.248C39.9523 65.032 40.4963 63.736 41.0083 62.36C41.5203 60.984 41.9843 59.688 42.4003 58.472C42.8483 57.224 43.2163 56.2 43.5043 55.4C43.7923 54.568 43.9843 54.12 44.0803 54.056L43.7923 54.104C43.5683 54.104 43.3923 53.992 43.2643 53.768C43.1363 53.512 42.9763 53.272 42.7843 53.048C42.5923 52.824 42.2723 52.712 41.8243 52.712C41.2483 52.712 40.6883 53.048 40.1443 53.72C39.6003 54.392 39.0723 55.208 38.5603 56.168C38.0803 57.096 37.6643 58.008 37.3123 58.904C36.9923 59.8 36.7683 60.472 36.6403 60.92C36.0003 63.128 35.6803 65.4 35.6803 67.736C35.6803 67.864 35.6803 68.152 35.6803 68.6C35.7123 69.016 35.7763 69.416 35.8723 69.8C36.0003 70.152 36.1763 70.328 36.4003 70.328ZM52.0921 71.192C51.8681 71.192 51.6921 71.112 51.5641 70.952C51.4681 70.76 51.4201 70.552 51.4201 70.328C51.4201 68.536 51.5161 66.744 51.7081 64.952C51.9321 63.128 52.0441 61.32 52.0441 59.528C52.0441 59.336 52.0281 58.968 51.9961 58.424C51.9961 57.848 51.9641 57.24 51.9001 56.6C51.8681 55.928 51.8041 55.336 51.7081 54.824C51.6441 54.28 51.5481 53.944 51.4201 53.816C51.2921 53.72 51.1641 53.608 51.0361 53.48C50.9401 53.352 50.8921 53.192 50.8921 53C50.8921 52.808 50.9721 52.664 51.1321 52.568C51.3241 52.44 51.5161 52.376 51.7081 52.376C52.2521 52.376 52.6361 52.632 52.8601 53.144C53.1161 53.624 53.2761 54.216 53.3401 54.92C53.4361 55.624 53.4841 56.296 53.4841 56.936C53.4841 59.944 53.3881 62.968 53.1961 66.008C53.3241 65.656 53.5801 65.032 53.9641 64.136C54.3481 63.24 54.8121 62.232 55.3561 61.112C55.9001 59.992 56.4601 58.92 57.0361 57.896C57.6441 56.84 58.2041 55.976 58.7161 55.304C59.2281 54.6 59.6441 54.248 59.9641 54.248C60.4121 54.248 60.7321 54.536 60.9241 55.112C61.1481 55.656 61.2601 56.104 61.2601 56.456C61.2601 57.928 61.1801 59.4 61.0201 60.872C60.8921 62.344 60.8281 63.832 60.8281 65.336C60.8281 65.528 60.8441 65.896 60.8761 66.44C60.9401 66.952 61.0361 67.448 61.1641 67.928C61.3241 68.376 61.5641 68.6 61.8841 68.6C62.1401 68.6 62.4761 68.312 62.8921 67.736C63.3081 67.16 63.7401 66.488 64.1881 65.72C64.6361 64.92 65.0361 64.168 65.3881 63.464C65.7401 62.76 65.9801 62.264 66.1081 61.976C66.1401 61.912 66.1721 61.848 66.2041 61.784C66.2361 61.688 66.2841 61.64 66.3481 61.64C66.5081 61.64 66.6041 61.768 66.6361 62.024C66.6681 62.248 66.6841 62.392 66.6841 62.456C66.6841 62.776 66.5081 63.336 66.1561 64.136C65.8041 64.936 65.3561 65.784 64.8121 66.68C64.3001 67.576 63.7561 68.344 63.1801 68.984C62.6361 69.624 62.1401 69.944 61.6921 69.944C61.0521 69.944 60.5721 69.688 60.2521 69.176C59.9641 68.664 59.7721 68.088 59.6761 67.448C59.5801 66.776 59.5321 66.216 59.5321 65.768C59.5321 64.712 59.5801 63.656 59.6761 62.6C59.8041 61.544 59.8681 60.488 59.8681 59.432C59.8681 59.336 59.8521 59.096 59.8201 58.712C59.8201 58.328 59.8041 57.96 59.7721 57.608C59.7401 57.256 59.6601 57.08 59.5321 57.08C59.2121 57.08 58.7961 57.48 58.2841 58.28C57.8041 59.08 57.2761 60.088 56.7001 61.304C56.1561 62.52 55.6121 63.784 55.0681 65.096C54.5241 66.376 54.0441 67.528 53.6281 68.552C53.2441 69.576 52.9721 70.264 52.8121 70.616C52.7481 70.744 52.6521 70.872 52.5241 71C52.4281 71.128 52.2841 71.192 52.0921 71.192ZM65.9225 72.344C65.3785 72.344 64.9785 72.072 64.7225 71.528C64.4665 71.016 64.3065 70.424 64.2425 69.752C64.1785 69.08 64.1465 68.568 64.1465 68.216C64.1465 67 64.2585 65.72 64.4825 64.376C64.7065 63 64.9945 61.72 65.3465 60.536C65.5065 59.992 65.7945 59.208 66.2105 58.184C66.6265 57.128 67.1225 56.056 67.6985 54.968C68.3065 53.88 68.9465 52.968 69.6185 52.232C70.3225 51.464 71.0265 51.08 71.7305 51.08C72.2745 51.08 72.8665 51.32 73.5065 51.8C74.1465 52.28 74.4665 52.808 74.4665 53.384C74.4665 53.608 74.3865 53.8 74.2265 53.96C74.2585 53.928 74.3385 53.912 74.4665 53.912C75.0745 53.912 75.3785 54.232 75.3785 54.872C75.3785 55.608 75.2665 56.488 75.0425 57.512C74.8505 58.536 74.6425 59.624 74.4185 60.776C74.1945 61.896 74.0825 62.984 74.0825 64.04C74.0825 64.424 74.1145 64.888 74.1785 65.432C74.2425 65.944 74.3865 66.408 74.6105 66.824C74.8665 67.24 75.2665 67.448 75.8105 67.448C76.3225 67.448 76.8665 67.176 77.4425 66.632C78.0185 66.088 78.5785 65.416 79.1225 64.616C79.6665 63.816 80.1785 63.016 80.6585 62.216C81.1385 61.416 81.5385 60.744 81.8585 60.2C82.2105 59.656 82.4505 59.384 82.5785 59.384C82.8025 59.384 82.9145 59.528 82.9145 59.816C82.9145 60.2 82.7385 60.76 82.3865 61.496C82.0665 62.2 81.6345 62.984 81.0905 63.848C80.5465 64.68 79.9385 65.496 79.2665 66.296C78.6265 67.064 77.9705 67.704 77.2985 68.216C76.6585 68.696 76.0825 68.936 75.5705 68.936C74.7385 68.936 74.0985 68.6 73.6505 67.928C73.2345 67.224 72.9465 66.392 72.7865 65.432C72.6585 64.472 72.5945 63.576 72.5945 62.744C72.5945 62.456 72.5945 62.184 72.5945 61.928C72.5945 61.672 72.6105 61.448 72.6425 61.256C72.4505 61.704 72.1785 62.376 71.8265 63.272C71.4745 64.136 71.0585 65.096 70.5785 66.152C70.1305 67.176 69.6345 68.168 69.0905 69.128C68.5785 70.056 68.0505 70.824 67.5065 71.432C66.9625 72.04 66.4345 72.344 65.9225 72.344ZM66.3065 70.328C66.7225 70.328 67.1865 69.944 67.6985 69.176C68.2105 68.408 68.7385 67.432 69.2825 66.248C69.8585 65.032 70.4025 63.736 70.9145 62.36C71.4265 60.984 71.8905 59.688 72.3065 58.472C72.7545 57.224 73.1225 56.2 73.4105 55.4C73.6985 54.568 73.8905 54.12 73.9865 54.056L73.6985 54.104C73.4745 54.104 73.2985 53.992 73.1705 53.768C73.0425 53.512 72.8825 53.272 72.6905 53.048C72.4985 52.824 72.1785 52.712 71.7305 52.712C71.1545 52.712 70.5945 53.048 70.0505 53.72C69.5065 54.392 68.9785 55.208 68.4665 56.168C67.9865 57.096 67.5705 58.008 67.2185 58.904C66.8985 59.8 66.6745 60.472 66.5465 60.92C65.9065 63.128 65.5865 65.4 65.5865 67.736C65.5865 67.864 65.5865 68.152 65.5865 68.6C65.6185 69.016 65.6825 69.416 65.7785 69.8C65.9065 70.152 66.0825 70.328 66.3065 70.328ZM84.9744 71.624C84.1104 71.624 83.4224 71.288 82.9104 70.616C82.3984 69.912 82.0304 69.064 81.8064 68.072C81.5824 67.048 81.4384 66.04 81.3744 65.048C81.3104 64.056 81.2784 63.272 81.2784 62.696C81.2784 59.464 81.6464 56.2 82.3824 52.904C82.7344 51.368 83.0704 50.024 83.3904 48.872C83.7424 47.72 84.1104 46.648 84.4944 45.656C84.8784 44.664 85.3104 43.64 85.7904 42.584C86.3024 41.528 86.8784 40.328 87.5184 38.984H87.3744C87.1824 38.984 87.0224 38.904 86.8944 38.744C86.7984 38.552 86.7504 38.376 86.7504 38.216C86.7504 37.832 86.9904 37.512 87.4704 37.256C87.9504 37 88.3504 36.872 88.6704 36.872C89.3424 36.872 89.8544 37.176 90.2064 37.784C90.5584 38.36 90.7984 39.032 90.9264 39.8C91.0544 40.536 91.1184 41.16 91.1184 41.672C91.1184 42.312 91.0704 42.968 90.9744 43.64C90.7504 45.24 90.3504 46.952 89.7744 48.776C89.2304 50.6 88.5264 52.344 87.6624 54.008C86.8304 55.64 85.8064 57.048 84.5904 58.232C84.3664 58.424 84.0784 58.664 83.7264 58.952C83.4064 59.208 83.0704 59.336 82.7184 59.336C82.6224 60.424 82.5744 61.544 82.5744 62.696C82.5744 63.112 82.5904 63.736 82.6224 64.568C82.6864 65.368 82.7984 66.216 82.9584 67.112C83.1504 67.976 83.4224 68.728 83.7744 69.368C84.1584 69.976 84.6544 70.28 85.2624 70.28C85.9344 70.28 86.5744 69.928 87.1824 69.224C87.8224 68.488 88.4144 67.592 88.9584 66.536C89.5024 65.448 89.9984 64.376 90.4464 63.32C90.8944 62.232 91.2624 61.336 91.5504 60.632C91.8704 59.896 92.0944 59.512 92.2224 59.48C92.3184 59.608 92.3664 59.8 92.3664 60.056C92.3664 60.6 92.2224 61.336 91.9344 62.264C91.6464 63.192 91.2464 64.2 90.7344 65.288C90.2544 66.344 89.6944 67.368 89.0544 68.36C88.4144 69.32 87.7424 70.104 87.0384 70.712C86.3664 71.32 85.6784 71.624 84.9744 71.624ZM82.8144 58.376C83.5504 58.184 84.2544 57.576 84.9264 56.552C85.6304 55.528 86.2704 54.28 86.8464 52.808C87.4224 51.336 87.9184 49.832 88.3344 48.296C88.7824 46.728 89.1184 45.304 89.3424 44.024C89.5984 42.712 89.7264 41.736 89.7264 41.096C89.7264 40.776 89.6944 40.376 89.6304 39.896C89.5664 39.384 89.3264 39.064 88.9104 38.936C88.8784 39.064 88.7984 39.16 88.6704 39.224C88.5744 39.288 88.4944 39.352 88.4304 39.416C88.0464 39.832 87.6144 40.632 87.1344 41.816C86.6544 43 86.1744 44.392 85.6944 45.992C85.2464 47.592 84.8144 49.208 84.3984 50.84C83.9824 52.472 83.6304 53.976 83.3424 55.352C83.0544 56.696 82.8784 57.704 82.8144 58.376ZM92.2663 72.344C91.7223 72.344 91.3223 72.072 91.0663 71.528C90.8103 71.016 90.6503 70.424 90.5863 69.752C90.5222 69.08 90.4902 68.568 90.4902 68.216C90.4902 67 90.6023 65.72 90.8263 64.376C91.0503 63 91.3383 61.72 91.6903 60.536C91.8503 59.992 92.1383 59.208 92.5543 58.184C92.9703 57.128 93.4663 56.056 94.0423 54.968C94.6503 53.88 95.2903 52.968 95.9622 52.232C96.6663 51.464 97.3703 51.08 98.0743 51.08C98.6183 51.08 99.2103 51.32 99.8503 51.8C100.49 52.28 100.81 52.808 100.81 53.384C100.81 53.608 100.73 53.8 100.57 53.96C100.602 53.928 100.682 53.912 100.81 53.912C101.418 53.912 101.722 54.232 101.722 54.872C101.722 55.608 101.61 56.488 101.386 57.512C101.194 58.536 100.986 59.624 100.762 60.776C100.538 61.896 100.426 62.984 100.426 64.04C100.426 64.424 100.458 64.888 100.522 65.432C100.586 65.944 100.73 66.408 100.954 66.824C101.21 67.24 101.61 67.448 102.154 67.448C102.666 67.448 103.21 67.176 103.786 66.632C104.362 66.088 104.922 65.416 105.466 64.616C106.01 63.816 106.522 63.016 107.002 62.216C107.482 61.416 107.882 60.744 108.202 60.2C108.554 59.656 108.794 59.384 108.922 59.384C109.146 59.384 109.258 59.528 109.258 59.816C109.258 60.2 109.082 60.76 108.73 61.496C108.41 62.2 107.978 62.984 107.434 63.848C106.89 64.68 106.282 65.496 105.61 66.296C104.97 67.064 104.314 67.704 103.642 68.216C103.002 68.696 102.426 68.936 101.914 68.936C101.082 68.936 100.442 68.6 99.9943 67.928C99.5783 67.224 99.2903 66.392 99.1303 65.432C99.0023 64.472 98.9383 63.576 98.9383 62.744C98.9383 62.456 98.9383 62.184 98.9383 61.928C98.9383 61.672 98.9543 61.448 98.9863 61.256C98.7943 61.704 98.5223 62.376 98.1703 63.272C97.8183 64.136 97.4023 65.096 96.9223 66.152C96.4743 67.176 95.9783 68.168 95.4343 69.128C94.9223 70.056 94.3943 70.824 93.8503 71.432C93.3063 72.04 92.7783 72.344 92.2663 72.344ZM92.6503 70.328C93.0663 70.328 93.5303 69.944 94.0423 69.176C94.5543 68.408 95.0823 67.432 95.6263 66.248C96.2023 65.032 96.7463 63.736 97.2583 62.36C97.7703 60.984 98.2343 59.688 98.6503 58.472C99.0983 57.224 99.4663 56.2 99.7543 55.4C100.042 54.568 100.234 54.12 100.33 54.056L100.042 54.104C99.8183 54.104 99.6423 53.992 99.5143 53.768C99.3863 53.512 99.2263 53.272 99.0343 53.048C98.8423 52.824 98.5223 52.712 98.0743 52.712C97.4983 52.712 96.9383 53.048 96.3943 53.72C95.8503 54.392 95.3223 55.208 94.8103 56.168C94.3303 57.096 93.9143 58.008 93.5623 58.904C93.2423 59.8 93.0183 60.472 92.8903 60.92C92.2503 63.128 91.9303 65.4 91.9303 67.736C91.9303 67.864 91.9303 68.152 91.9303 68.6C91.9623 69.016 92.0263 69.416 92.1223 69.8C92.2503 70.152 92.4263 70.328 92.6503 70.328Z" fill="url(#paint0_angular_0_1)"/>
<defs>
<radialGradient id="paint0_angular_0_1" cx="0" cy="0" r="1" gradientUnits="userSpaceOnUse" gradientTransform="translate(-6 -35.5) rotate(-10.8641) scale(50.4034 202.935)">
<stop offset="0.0924211" stop-color="#EE9D23"/>
<stop offset="0.134237" stop-color="#F8D8A8" stop-opacity="0.581526"/>
<stop offset="1" stop-color="white" stop-opacity="0.31"/>
</radialGradient>
</defs>
</svg>
