<svg width="79" height="66" viewBox="0 0 79 66" fill="none" xmlns="http://www.w3.org/2000/svg">
<path d="M44.0208 39.8744C47.1676 36.635 48.955 32.2546 48.9992 27.6737C49.0433 23.0929 47.3408 18.6768 44.2571 15.3738C41.1734 12.0707 36.9545 10.1442 32.5063 10.0078C28.058 9.87134 23.7351 11.5359 20.4659 14.6441C17.1967 17.7523 15.2418 22.0562 15.0209 26.6316C14.8001 31.2071 16.331 35.6893 19.2849 39.1157C22.2387 42.5422 26.38 44.6396 30.8195 44.9578C35.259 45.2759 39.6426 43.7893 43.0292 40.8172L42.1275 39.7285C39.0179 42.4576 34.9926 43.8227 30.916 43.5306C26.8394 43.2385 23.0367 41.3125 20.3243 38.1662C17.6119 35.0198 16.2062 30.9041 16.409 26.7026C16.6117 22.5012 18.4068 18.5491 21.4088 15.6951C24.4108 12.841 28.3803 11.3125 32.4649 11.4377C36.5495 11.563 40.4235 13.3321 43.2551 16.3651C46.0867 19.3981 47.6501 23.4531 47.6095 27.6595C47.5689 31.8659 45.9277 35.8883 43.0381 38.8628L44.0208 39.8744Z" fill="#D9D9D9"/>
<ellipse cx="32" cy="27.5" rx="16" ry="16.5" fill="#52C7EC" fill-opacity="0.14"/>
<path d="M41.7989 40.0275L42.5 39.5L43.5 38.5L57.5318 55.9804L55.9881 57.252L41.7989 40.0275Z" fill="#D9D9D9"/>
<path d="M49.9482 49.9201L50.3724 49.592L52 49L57.5 56L55.9881 57.252L49.9482 49.9201Z" fill="#888383"/>
</svg>
