<svg width="79" height="66" viewBox="0 0 79 66" fill="none" xmlns="http://www.w3.org/2000/svg">
<path d="M8 17.5C8 15.0147 10.0147 13 12.5 13H65.5C67.9853 13 70 15.0147 70 17.5V17.5C70 19.9853 67.9853 22 65.5 22H12.5C10.0147 22 8 19.9853 8 17.5V17.5Z" fill="white"/>
<path d="M8 35.5C8 33.0147 10.0147 31 12.5 31H65.5C67.9853 31 70 33.0147 70 35.5V35.5C70 37.9853 67.9853 40 65.5 40H12.5C10.0147 40 8 37.9853 8 35.5V35.5Z" fill="white"/>
<path d="M8 54.5C8 52.0147 10.0147 50 12.5 50H65.5C67.9853 50 70 52.0147 70 54.5V54.5C70 56.9853 67.9853 59 65.5 59H12.5C10.0147 59 8 56.9853 8 54.5V54.5Z" fill="white"/>
</svg>
