<svg width="129" height="105" viewBox="0 0 129 105" fill="none" xmlns="http://www.w3.org/2000/svg">
<path d="M33.0038 93.995L18.0066 42.005H116.493L99.9963 93.995H33.0038Z" fill="#E1ED56" stroke="black" stroke-width="0.01"/>
<path d="M68.4191 61.8975C75.6457 61.6532 82.5351 59.1169 87.8398 54.7479C93.1445 50.3789 96.5138 44.4661 97.3374 38.0801C98.161 31.6942 96.3845 25.2574 92.3297 19.9355C88.2749 14.6135 82.2097 10.7583 75.2327 9.06787C68.2556 7.37747 60.828 7.96369 54.2948 10.7204C47.7617 13.477 42.5549 18.2219 39.6176 24.0957C36.6802 29.9695 36.2064 36.5839 38.282 42.741C40.3575 48.8981 44.8452 54.1909 50.9324 57.6608L53.2456 54.4552C48.0203 51.4766 44.168 46.9331 42.3863 41.6477C40.6045 36.3623 41.0113 30.6844 43.5328 25.6422C46.0543 20.6 50.5238 16.5269 56.132 14.1605C61.7403 11.7941 68.1163 11.2909 74.1056 12.742C80.0948 14.1931 85.3012 17.5025 88.782 22.071C92.2628 26.6395 93.7877 32.1649 93.0807 37.6467C92.3737 43.1286 89.4815 48.2043 84.9278 51.9547C80.3741 55.7052 74.4601 57.8824 68.2566 58.0921L68.4191 61.8975Z" fill="#E1ED56"/>
</svg>
