<svg width="129" height="105" viewBox="0 0 129 105" fill="none" xmlns="http://www.w3.org/2000/svg">
<path d="M33 74C33 66.268 39.268 60 47 60H82C89.732 60 96 66.268 96 74V82C96 87.5228 91.5228 92 86 92H43C37.4772 92 33 87.5228 33 82V74Z" fill="#D9D9D9"/>
<path d="M52 60H83V64.5C83 73.0604 76.0604 80 67.5 80V80C58.9396 80 52 73.0604 52 64.5V60Z" fill="#D9D9D9"/>
<rect x="47" y="60" width="35" height="32" fill="#26D616"/>
<path d="M33 74C33 66.268 39.268 60 47 60H58C63.5228 60 68 64.4772 68 70V92H43C37.4772 92 33 87.5228 33 82V74Z" fill="#143F67"/>
<path d="M96 74C96 66.268 89.732 60 82 60H71C65.4772 60 61 64.4772 61 70V92H86C91.5228 92 96 87.5228 96 82V74Z" fill="#143F67"/>
<path d="M45 38C57.53 12.9123 69.859 15.2399 84 38V38.5C84 49.2695 75.2696 58 64.5 58V58C53.7304 58 45 49.2695 45 38.5V38Z" fill="#D9D9D9"/>
<path d="M57 60H72V61.8947C72 65.8189 68.8189 69 64.8947 69V69C60.5346 69 57 65.4654 57 61.1053V60Z" fill="#D9D9D9"/>
<path d="M45 26.5C45 20.1487 50.1487 15 56.5 15H72.5C78.8513 15 84 20.1487 84 26.5V38L76 28.5L64.5 30L52 28.5L45 38V26.5Z" fill="black"/>
</svg>
